<?xml version="1.0" standalone="no"?>
<svg xmlns:xlink="http://www.w3.org/1999/xlink" id="wave" style="transform:rotate(180deg); transition: 0.3s" viewBox="0 0 1440 100" version="1.1" xmlns="http://www.w3.org/2000/svg"><defs><linearGradient id="sw-gradient-0" x1="0" x2="0" y1="1" y2="0"><stop stop-color="rgba(60, 55, 86, 1)" offset="0%"/><stop stop-color="rgba(60, 55, 86, 1)" offset="100%"/></linearGradient></defs><path style="transform:translate(0, 0px); opacity:1" fill="url(#sw-gradient-0)" d="M0,0L80,13.3C160,27,320,53,480,60C640,67,800,53,960,46.7C1120,40,1280,40,1440,48.3C1600,57,1760,73,1920,71.7C2080,70,2240,50,2400,45C2560,40,2720,50,2880,46.7C3040,43,3200,27,3360,26.7C3520,27,3680,43,3840,41.7C4000,40,4160,20,4320,20C4480,20,4640,40,4800,53.3C4960,67,5120,73,5280,66.7C5440,60,5600,40,5760,36.7C5920,33,6080,47,6240,43.3C6400,40,6560,20,6720,25C6880,30,7040,60,7200,61.7C7360,63,7520,37,7680,33.3C7840,30,8000,50,8160,55C8320,60,8480,50,8640,51.7C8800,53,8960,67,9120,70C9280,73,9440,67,9600,60C9760,53,9920,47,10080,51.7C10240,57,10400,73,10560,80C10720,87,10880,83,11040,81.7C11200,80,11360,80,11440,80L11520,80L11520,100L11440,100C11360,100,11200,100,11040,100C10880,100,10720,100,10560,100C10400,100,10240,100,10080,100C9920,100,9760,100,9600,100C9440,100,9280,100,9120,100C8960,100,8800,100,8640,100C8480,100,8320,100,8160,100C8000,100,7840,100,7680,100C7520,100,7360,100,7200,100C7040,100,6880,100,6720,100C6560,100,6400,100,6240,100C6080,100,5920,100,5760,100C5600,100,5440,100,5280,100C5120,100,4960,100,4800,100C4640,100,4480,100,4320,100C4160,100,4000,100,3840,100C3680,100,3520,100,3360,100C3200,100,3040,100,2880,100C2720,100,2560,100,2400,100C2240,100,2080,100,1920,100C1760,100,1600,100,1440,100C1280,100,1120,100,960,100C800,100,640,100,480,100C320,100,160,100,80,100L0,100Z"/></svg>